HIERARCHY
ROOT hip
{
  OFFSET 0 0 0
  CHANNELS 6 Xposition Yposition Zposition Zrotation Yrotation Xrotation
  JOINT abdomen
  {
    OFFSET 0 20.6881 -0.73152
    CHANNELS 3 Zrotation Xrotation Yrotation
    JOINT chest
    {
      OFFSET 0 11.7043 -0.48768
      CHANNELS 3 Zrotation Xrotation Yrotation
      JOINT neck
      {
        OFFSET 0 22.1894 -2.19456
        CHANNELS 3 Zrotation Xrotation Yrotation
        JOINT head
        {
          OFFSET -0.24384 7.07133 1.2192
          CHANNELS 3 Zrotation Xrotation Yrotation
          JOINT leftEye
          {
            OFFSET 4.14528 8.04674 8.04672
            CHANNELS 3 Zrotation Xrotation Yrotation
            End Site
            {
              OFFSET 1 0 0
            }
          }
          JOINT rightEye
          {
            OFFSET -3.6576 8.04674 8.04672
            CHANNELS 3 Zrotation Xrotation Yrotation
            End Site
            {
              OFFSET 1 0 0
            }
          }
        }
      }
      JOINT rCollar
      {
        OFFSET -2.68224 19.2634 -4.8768
        CHANNELS 3 Zrotation Xrotation Yrotation
        JOINT rShldr
        {
          OFFSET -8.77824 -1.95073 1.46304
          CHANNELS 3 Zrotation Xrotation Yrotation
          JOINT rForeArm
          {
            OFFSET -28.1742 -1.7115 0.48768
            CHANNELS 3 Zrotation Xrotation Yrotation
            JOINT rHand
            {
              OFFSET -22.5879 0.773209 7.07136
              CHANNELS 3 Zrotation Xrotation Yrotation
              JOINT rThumb1
              {
                OFFSET -1.2192 -0.487915 3.41376
                CHANNELS 3 Zrotation Xrotation Yrotation
                JOINT rThumb2
                {
                  OFFSET -3.37035 -0.52449 3.41376
                  CHANNELS 3 Zrotation Xrotation Yrotation
                  End Site
                  {
                    OFFSET -1.78271 -1.18214 1.43049
                  }
                }
              }
              JOINT rIndex1
              {
                OFFSET -7.75947 0.938293 5.60832
                CHANNELS 3 Zrotation Xrotation Yrotation
                JOINT rIndex2
                {
                  OFFSET -2.54057 -0.884171 1.56538
                  CHANNELS 3 Zrotation Xrotation Yrotation
                  End Site
                  {
                    OFFSET -1.62519 -0.234802 1.16502
                  }
                }
              }
              JOINT rMid1
              {
                OFFSET -8.24714 1.18213 3.41376
                CHANNELS 3 Zrotation Xrotation Yrotation
                JOINT rMid2
                {
                  OFFSET -3.10165 -0.590103 1.0647
                  CHANNELS 3 Zrotation Xrotation Yrotation
                  End Site
                  {
                    OFFSET -2.48547 -0.328903 0.83742
                  }
                }
              }
              JOINT rRing1
              {
                OFFSET -8.82822 0.546677 1.51678
                CHANNELS 3 Zrotation Xrotation Yrotation
                JOINT rRing2
                {
                  OFFSET -2.60934 -0.819778 -0.0198488
                  CHANNELS 3 Zrotation Xrotation Yrotation
                  End Site
                  {
                    OFFSET -2.33842 -0.294052 0.168128
                  }
                }
              }
              JOINT rPinky1
              {
                OFFSET -8.27202 -0.0477905 -0.4584
                CHANNELS 3 Zrotation Xrotation Yrotation
                JOINT rPinky2
                {
                  OFFSET -1.82734 -0.647385 -0.700984
                  CHANNELS 3 Zrotation Xrotation Yrotation
                  End Site
                  {
                    OFFSET -1.69225 -0.51767 -0.607171
                  }
                }
              }
            }
          }
        }
      }
      JOINT lCollar
      {
        OFFSET 2.68224 19.2634 -4.8768
        CHANNELS 3 Zrotation Xrotation Yrotation
        JOINT lShldr
        {
          OFFSET 8.77824 -1.95073 1.46304
          CHANNELS 3 Zrotation Xrotation Yrotation
          JOINT lForeArm
          {
            OFFSET 28.1742 -1.7115 0.48768
            CHANNELS 3 Zrotation Xrotation Yrotation
            JOINT lHand
            {
              OFFSET 22.5879 0.773209 7.07136
              CHANNELS 3 Zrotation Xrotation Yrotation
              JOINT lThumb1
              {
                OFFSET 1.2192 -0.487915 3.41376
                CHANNELS 3 Zrotation Xrotation Yrotation
                JOINT lThumb2
                {
                  OFFSET 3.37035 -0.52449 3.41376
                  CHANNELS 3 Zrotation Xrotation Yrotation
                  End Site
                  {
                    OFFSET 1.78271 -1.18214 1.43049
                  }
                }
              }
              JOINT lIndex1
              {
                OFFSET 7.75947 0.938293 5.60832
                CHANNELS 3 Zrotation Xrotation Yrotation
                JOINT lIndex2
                {
                  OFFSET 2.54057 -0.884171 1.56538
                  CHANNELS 3 Zrotation Xrotation Yrotation
                  End Site
                  {
                    OFFSET 1.62519 -0.234802 1.16502
                  }
                }
              }
              JOINT lMid1
              {
                OFFSET 8.24714 1.18213 3.41376
                CHANNELS 3 Zrotation Xrotation Yrotation
                JOINT lMid2
                {
                  OFFSET 3.10165 -0.590103 1.0647
                  CHANNELS 3 Zrotation Xrotation Yrotation
                  End Site
                  {
                    OFFSET 2.48547 -0.328903 0.83742
                  }
                }
              }
              JOINT lRing1
              {
                OFFSET 8.82822 0.546677 1.51678
                CHANNELS 3 Zrotation Xrotation Yrotation
                JOINT lRing2
                {
                  OFFSET 2.60934 -0.819778 -0.0198488
                  CHANNELS 3 Zrotation Xrotation Yrotation
                  End Site
                  {
                    OFFSET 2.33842 -0.294052 0.168128
                  }
                }
              }
              JOINT lPinky1
              {
                OFFSET 8.27202 -0.0477905 -0.4584
                CHANNELS 3 Zrotation Xrotation Yrotation
                JOINT lPinky2
                {
                  OFFSET 1.82734 -0.647385 -0.700984
                  CHANNELS 3 Zrotation Xrotation Yrotation
                  End Site
                  {
                    OFFSET 1.69225 -0.51767 -0.607171
                  }
                }
              }
            }
          }
        }
      }
    }
  }
  JOINT rButtock
  {
    OFFSET -8.77824 4.35084 1.2192
    CHANNELS 3 Zrotation Xrotation Yrotation
    JOINT rThigh
    {
      OFFSET 0 -1.70687 -2.19456
      CHANNELS 3 Zrotation Xrotation Yrotation
      JOINT rShin
      {
        OFFSET 0 -36.8199 0.73152
        CHANNELS 3 Zrotation Xrotation Yrotation
        JOINT rFoot
        {
          OFFSET 0.73152 -45.1104 -5.12064
          CHANNELS 3 Zrotation Xrotation Yrotation
          End Site
          {
            OFFSET -1.1221 -3.69964 12.103
          }
        }
      }
    }
  }
  JOINT lButtock
  {
    OFFSET 8.77824 4.35084 1.2192
    CHANNELS 3 Zrotation Xrotation Yrotation
    JOINT lThigh
    {
      OFFSET 0 -1.70687 -2.19456
      CHANNELS 3 Zrotation Xrotation Yrotation
      JOINT lShin
      {
        OFFSET 0 -36.8199 0.73152
        CHANNELS 3 Zrotation Xrotation Yrotation
        JOINT lFoot
        {
          OFFSET -0.73152 -45.1104 -5.12064
          CHANNELS 3 Zrotation Xrotation Yrotation
          End Site
          {
            OFFSET 1.1221 -3.69964 12.103
          }
        }
      }
    }
  }
}
MOTION
Frames:	4
Frame Time:	0.00833333
-40.0719 84.487 -87.385 151.933 92.2187 156.367 6.36954 0.915675 1.44736 2.94965 -5.88196 0.803293 -6.258 -7.69786 -3.65272 4.82927 14.2966 -4.53893 -0.0 0.0 0.0 -0.0 0.0 0.0 5.88433e-14 1.58232e-13 1.23763e-14 61.6294 39.1177 22.9384 -28.393 -37.1505 78.9522 -0.0103183 -2.88104 -0.405255 2.49206e-09 -1.23921e-09 -4.89277e-09 4.31347e-09 -2.14206e-09 -8.45012e-09 2.49206e-09 -1.23921e-09 -4.89278e-09 7.73091 5.47488 0.417314 2.49206e-09 -1.23921e-09 -4.89277e-09 2.90554 0.965183 0.102902 2.49206e-09 -1.23921e-09 -4.89277e-09 10.2786 0.731801 0.0259123 2.49206e-09 -1.23921e-09 -4.89276e-09 2.22167 -0.733487 -0.20892 5.88782e-14 1.58252e-13 1.22548e-14 -61.9296 48.0053 -25.9423 28.1694 -39.3723 -82.8226 3.76878 -46.9737 8.65997 3.0338e-09 -2.60818e-09 2.89532e-09 5.11835e-09 -4.5548e-09 5.09799e-09 3.0338e-09 -2.60818e-09 2.89532e-09 -7.73091 5.47488 -0.417314 3.0338e-09 -2.60819e-09 2.89532e-09 -2.90554 0.965183 -0.102902 3.0338e-09 -2.60818e-09 2.89532e-09 -10.2786 0.731801 -0.0259123 3.03381e-09 -2.60818e-09 2.89531e-09 -2.22167 -0.733487 0.20892 -2.03217e-16 0.0 -3.88251e-19 -3.34775 -3.68333 -5.38208 0.00811249 10.2233 0.198844 -2.68383 -10.8588 -13.0636 2.03217e-16 0.0 3.88251e-19 5.25558 -8.98684 -15.0014 0.110487 19.7247 -0.70443 9.91494 -18.4835 21.7945
-40.102 84.4911 -87.3464 150.926 92.125 155.357 6.34227 1.02299 1.41365 3.0528 -5.81368 0.797663 -6.15857 -7.69934 -3.5668 4.77138 13.9503 -4.40723 -0.0 0.0 0.0 -0.0 0.0 0.0 6.36036e-14 4.5782e-13 -3.32964e-15 60.5121 38.6279 24.3534 -28.4099 -36.8002 78.3567 -0.010539 -2.92978 -0.412117 2.59299e-09 -1.29303e-09 -4.86234e-09 4.48836e-09 -2.2341e-09 -8.39654e-09 2.593e-09 -1.29303e-09 -4.86235e-09 7.73091 5.47488 0.417314 2.59299e-09 -1.29303e-09 -4.86234e-09 2.90554 0.965183 0.102902 2.59299e-09 -1.29303e-09 -4.86233e-09 10.2786 0.731801 0.0259123 2.59299e-09 -1.29303e-09 -4.86233e-09 2.22167 -0.733487 -0.20892 6.36227e-14 4.57838e-13 -3.42904e-15 -61.3143 47.4399 -27.0195 28.2005 -39.181 -82.4664 3.73816 -46.835 8.61791 2.91659e-09 -2.60304e-09 2.95158e-09 4.91424e-09 -4.54867e-09 5.19048e-09 2.91659e-09 -2.60304e-09 2.95158e-09 -7.73091 5.47488 -0.417314 2.91659e-09 -2.60305e-09 2.95158e-09 -2.90554 0.965183 -0.102902 2.91659e-09 -2.60304e-09 2.95157e-09 -10.2786 0.731801 -0.0259123 2.91659e-09 -2.60304e-09 2.95157e-09 -2.22167 -0.733487 0.20892 -2.03217e-16 0.0 -3.88251e-19 -3.32807 -3.69445 -5.45155 0.00826196 10.2252 0.200157 -2.67632 -10.8426 -13.0456 2.03217e-16 0.0 3.88251e-19 5.2882 -9.02616 -15.008 0.110659 19.7317 -0.702974 9.86435 -18.5646 21.6268
-40.1374 84.4989 -87.3107 149.453 92.0168 153.887 6.34083 1.11729 1.37305 3.12037 -5.7794 0.788923 -6.10052 -7.69428 -3.51421 4.83293 13.7593 -4.33672 -0.0 0.0 0.0 -0.0 0.0 0.0 4.40326e-14 5.83111e-13 -6.17242e-15 59.3425 38.2051 25.7212 -28.4233 -36.4409 77.7456 -0.0119307 -3.13743 -0.441373 3.00772e-09 -1.43527e-09 -5.48965e-09 5.20722e-09 -2.47981e-09 -9.47874e-09 3.00773e-09 -1.43527e-09 -5.48967e-09 7.73091 5.47488 0.417314 3.00772e-09 -1.43527e-09 -5.48965e-09 2.90554 0.965183 0.102902 3.00772e-09 -1.43527e-09 -5.48965e-09 10.2786 0.731801 0.0259123 3.00772e-09 -1.43527e-09 -5.48964e-09 2.22167 -0.733487 -0.20892 4.40318e-14 5.83127e-13 -6.28152e-15 -60.6479 46.8251 -28.1318 28.2386 -38.8949 -81.9604 3.76845 -46.969 8.6591 3.47944e-09 -3.01507e-09 3.44285e-09 5.86464e-09 -5.26993e-09 6.05696e-09 3.47944e-09 -3.01507e-09 3.44285e-09 -7.73091 5.47488 -0.417314 3.47944e-09 -3.01508e-09 3.44285e-09 -2.90554 0.965183 -0.102902 3.47944e-09 -3.01508e-09 3.44284e-09 -10.2786 0.731801 -0.0259123 3.47945e-09 -3.01507e-09 3.44284e-09 -2.22167 -0.733487 0.20892 -2.03217e-16 0.0 -3.88251e-19 -3.29687 -3.71351 -5.54629 0.00844224 10.2276 0.201749 -2.67589 -10.8363 -13.0507 2.03217e-16 0.0 3.88251e-19 5.33448 -9.09041 -14.991 0.111381 19.7371 -0.700123 9.78802 -18.5427 21.4806
-40.1772 84.5078 -87.2743 147.631 91.9103 152.083 6.34909 1.20676 1.31554 3.17018 -5.76564 0.774793 -6.06068 -7.68721 -3.4769 4.97188 13.6679 -4.29659 -0.0 0.0 0.0 -0.0 0.0 0.0 8.1642e-15 6.24913e-13 -2.62147e-15 58.1221 37.8332 27.063 -28.4313 -36.0655 77.1152 -0.0142861 -3.43521 -0.483359 3.58731e-09 -1.61522e-09 -6.44137e-09 6.21202e-09 -2.79113e-09 -1.1121e-08 3.58732e-09 -1.61522e-09 -6.4414e-09 7.73091 5.47488 0.417314 3.58731e-09 -1.61522e-09 -6.44137e-09 2.90554 0.965183 0.102902 3.58731e-09 -1.61522e-09 -6.44137e-09 10.2786 0.731801 0.0259123 3.58731e-09 -1.61522e-09 -6.44136e-09 2.22167 -0.733487 -0.20892 8.13659e-15 6.24927e-13 -2.76124e-15 -59.9652 46.1677 -29.2469 28.2759 -38.5416 -81.3625 3.83801 -47.2738 8.75346 4.40654e-09 -3.64451e-09 4.16519e-09 7.43338e-09 -6.37042e-09 7.33463e-09 4.40654e-09 -3.64451e-09 4.16519e-09 -7.73091 5.47488 -0.417314 4.40654e-09 -3.64451e-09 4.16519e-09 -2.90554 0.965183 -0.102902 4.40654e-09 -3.64451e-09 4.16518e-09 -10.2786 0.731801 -0.0259123 4.40655e-09 -3.64451e-09 4.16518e-09 -2.22167 -0.733487 0.20892 -2.03217e-16 0.0 -3.88251e-19 -3.2634 -3.73858 -5.66344 0.00865176 10.2299 0.203587 -2.68016 -10.8375 -13.0699 2.03217e-16 0.0 3.88251e-19 5.38542 -9.17322 -14.9629 0.112463 19.7396 -0.696318 9.69304 -18.4628 21.3367
